<?xml version="1.0" encoding="UTF-8" standalone="no"?>
<!DOCTYPE svg PUBLIC "-//W3C//DTD SVG 1.1//EN" "http://www.w3.org/Graphics/SVG/1.1/DTD/svg11.dtd">
<svg width="100%" height="100%" viewBox="0 0 288 288" version="1.1" xmlns="http://www.w3.org/2000/svg" xmlns:xlink="http://www.w3.org/1999/xlink" xml:space="preserve" xmlns:serif="http://www.serif.com/" style="fill-rule:evenodd;clip-rule:evenodd;stroke-linecap:round;stroke-linejoin:round;stroke-miterlimit:1.5;">
    <g transform="matrix(1,0,0,1,0.000637745,0.000807305)">
        <g transform="matrix(1,0,0,1,-978.7,-160.334)">
            <g transform="matrix(1.03704,0,0,1.22807,7.89288,-251.286)">
                <ellipse cx="1074.67" cy="452.163" rx="136.998" ry="115.687" style="fill:rgb(40,22,23);stroke:rgb(229,155,8);stroke-width:2.81px;"/>
            </g>
        </g>
        <g transform="matrix(1,0,0,1,-978.7,-160.334)">
            <g transform="matrix(0.286145,0,0,0.260716,776.386,222.651)">
                <path id="path36808" d="M1109.11,446.21C1113.49,454.72 1116.22,463.74 1120.13,472.36C1122.4,477.373 1124.4,482.493 1126.12,487.72C1126.24,488.073 1126.11,488.25 1125.74,488.25L1115.55,488.25C1115.22,488.25 1115.05,488.087 1115.02,487.76C1112.23,455.1 1095.85,426.33 1067.26,409.79C1067.07,409.683 1067.05,409.707 1067.2,409.86C1085.65,428.287 1097.41,450.337 1102.5,476.01C1102.66,476.837 1102.61,476.85 1102.35,476.05C1094.64,452.497 1080.08,434.48 1058.66,422C1058.63,421.979 1058.6,421.968 1058.56,421.968C1058.47,421.968 1058.39,422.046 1058.39,422.14C1058.39,422.196 1058.41,422.248 1058.46,422.28C1076.33,438.28 1086.77,459.05 1093.32,482.69C1093.83,484.537 1094.17,485.967 1094.32,486.98C1094.49,488.167 1094.39,488.193 1094,487.06C1086.17,464.4 1071.92,447.043 1051.27,434.99C1050.82,434.737 1050.78,434.787 1051.15,435.14C1066.41,449.913 1077.13,467.473 1083.32,487.82C1083.41,488.107 1083.3,488.25 1083,488.25L1018.5,488.25C1018.13,488.25 1017.99,488.07 1018.06,487.71C1020.73,474.937 1023.42,462.2 1026.13,449.5C1026.37,448.39 1026.25,447.61 1026,446.57C1014.94,401.83 990.26,351.77 953.24,323.08C937.693,311.033 923.483,297.547 910.61,282.62C910.39,282.367 910.11,282.24 909.77,282.24C889.643,282.267 869.56,282.26 849.52,282.22C840.87,282.21 833.97,278.8 833.24,269.55C832.693,262.557 832.927,255.597 833.94,248.67C834.84,242.47 836.7,240.38 840.65,235.86C847.58,227.92 836.19,181.69 833.31,170.79C833.22,170.466 832.941,170.23 832.61,170.2C814.78,168.59 792.95,161.79 783.08,145.94C779.2,139.71 776.4,129.14 779.91,122.17C780.28,121.438 781.158,121.105 781.92,121.41C800.68,128.97 821.07,132.38 841.04,128.26C841.627,128.142 842.042,127.603 842.01,127C841.53,117.04 842.79,108.18 853.08,103.84C869.97,96.72 912.37,94.26 925.18,110.9C925.393,111.18 925.673,111.363 926.02,111.45C932.733,113.123 940.64,114.07 949.74,114.29C985.04,115.13 1018.81,113.13 1051.86,106.1C1086.8,98.67 1126.02,109.65 1158.8,121.48C1162.07,122.667 1167.82,124.097 1176.04,125.77C1197.49,130.15 1219.72,132.25 1241.57,133.33C1260.74,134.28 1280.05,134.92 1299.24,134.17C1337.01,132.69 1377.18,129.76 1414.91,123.05C1444.59,117.77 1474.93,117.45 1504.83,120.76C1530.06,123.54 1556.72,128.43 1578.44,141.81C1596.41,152.87 1606.56,176.37 1609.5,196.76C1612.6,218.29 1609.67,238.77 1604.58,260.19C1592.23,312.22 1593.03,368.85 1612.84,418.96C1612.97,419.3 1612.88,419.55 1612.55,419.71C1599.79,425.99 1582.57,426.59 1579.49,408.49C1577.39,396.13 1578.99,384.04 1581.9,372.23C1582.23,370.897 1582.23,369.57 1581.91,368.25C1579.98,360.243 1578.59,352.153 1577.74,343.98C1577.67,343.387 1577.55,343.373 1577.37,343.94C1565.98,379.06 1556.79,414.727 1549.79,450.94C1549.36,453.147 1548.63,455.19 1547.59,457.07C1541.95,467.223 1535.74,477.013 1528.95,486.44C1527.93,487.85 1526.99,488.3 1525.16,488.29C1509.21,488.17 1493.28,488.21 1477.39,488.41C1477.28,488.407 1477.18,488.313 1477.18,488.2C1477.18,488.153 1477.2,488.107 1477.23,488.07C1490.1,472.337 1499.74,454.823 1506.14,435.53C1520.64,391.82 1525.23,343.87 1523.98,298C1523.95,296.753 1523.98,295.507 1524.08,294.26C1524.11,293.913 1524.25,293.63 1524.52,293.41C1536.13,283.69 1543.83,269.59 1539.75,254.02C1537.38,245.01 1530.97,238.65 1521.64,237.76C1507.35,236.4 1493.48,251.34 1504.28,264.46C1509.34,270.6 1524.06,274.38 1525.99,262.83C1526.05,262.477 1525.9,262.34 1525.55,262.42C1521.08,263.42 1517.38,264.07 1516.07,258.9C1513.57,249.03 1529.77,247.2 1530.52,258C1531.67,274.83 1516.81,277.95 1503.77,274.2C1498.46,272.673 1493.39,270.563 1488.57,267.87C1428.69,234.42 1356.69,221.19 1288.94,227.44C1236.41,232.29 1186.3,250.31 1140.91,276.92C1140.59,277.113 1140.31,277.063 1140.07,276.77C1133.03,268.16 1118.38,255.33 1107.88,265.1C1104.27,268.45 1102.26,274.95 1099.46,278.23C1091.77,287.243 1082.11,291.407 1070.46,290.72C1069.33,290.653 1069.16,291.027 1069.95,291.84C1076.95,299.02 1084.94,304.137 1093.91,307.19C1097.24,308.32 1101.2,308.57 1104.96,309.01C1105.91,309.123 1105.94,309.35 1105.04,309.69C1099.44,311.81 1093.81,311.817 1088.15,309.71C1087.81,309.583 1087.48,309.613 1087.17,309.8C1080.22,313.9 1074.62,319.26 1070.37,325.88C1070.03,326.407 1068.45,329.56 1065.62,335.34C1060.96,344.873 1053.92,352.68 1044.51,358.76C1040.08,361.62 1035.22,361.57 1030.29,361.77C1029.94,361.783 1029.77,361.963 1029.79,362.31C1030.15,369.4 1028.4,378.51 1032.22,382.27C1053.2,402.99 1077.96,409.433 1106.49,401.6C1109.62,400.747 1111.79,400.397 1113.02,400.55C1120.16,401.44 1120.44,409.39 1125.89,412.65C1136.08,418.74 1153.14,416.34 1164.77,416.77C1166.7,416.843 1168.44,417.273 1169.99,418.06C1196.4,431.49 1198.64,462.2 1193.78,487.79C1193.72,488.09 1193.54,488.24 1193.24,488.24L1158.41,488.27C1158.07,488.271 1157.78,488.003 1157.75,487.66C1155.09,455.43 1138.6,426.21 1109.96,409.83C1109.62,409.637 1109.59,409.677 1109.88,409.95C1127.92,427.46 1138.86,449.2 1144.95,473.52C1145.26,474.787 1145.46,475.92 1145.54,476.92C1145.58,477.373 1145.53,477.383 1145.39,476.95C1137.81,453.17 1123.3,434.94 1101.86,422.26C1101.83,422.242 1101.79,422.236 1101.75,422.241C1101.66,422.253 1101.59,422.335 1101.61,422.422C1101.61,422.46 1101.63,422.495 1101.66,422.52C1120.06,439.53 1131.94,463.28 1137.4,487.46C1137.79,489.18 1137.65,489.223 1136.99,487.59C1134.94,482.56 1132.91,476.99 1130.59,472.71C1125.13,462.603 1118.08,453.687 1109.44,445.96C1109.4,445.924 1109.35,445.903 1109.3,445.903C1109.18,445.903 1109.09,445.998 1109.09,446.113C1109.09,446.147 1109.09,446.18 1109.11,446.21ZM843.24,170.67C842.9,184.16 861.94,181.86 859.9,170.52C859.842,170.202 859.563,169.97 859.24,169.97L843.83,170.09C843.443,170.09 843.247,170.283 843.24,170.67ZM904.48,170.82C904.17,183.27 921.83,182.7 921.46,171.24C921.439,170.553 920.872,170 920.19,170L905.32,170C904.867,170 904.491,170.367 904.48,170.82Z" style="fill:rgb(240,131,0);fill-rule:nonzero;"/>
            </g>
        </g>
        <g transform="matrix(1,0,0,1,-978.7,-160.334)">
            <g transform="matrix(0.286145,0,0,0.260716,776.386,222.651)">
                <path id="path36810" d="M859.9,170.52C861.94,181.86 842.9,184.16 843.24,170.67C843.247,170.283 843.443,170.09 843.83,170.09L859.24,169.97C859.563,169.97 859.842,170.202 859.9,170.52Z" style="fill:white;fill-rule:nonzero;"/>
            </g>
        </g>
        <g transform="matrix(1,0,0,1,-978.7,-160.334)">
            <g transform="matrix(0.286145,0,0,0.260716,776.386,222.651)">
                <path id="path36812" d="M921.46,171.24C921.83,182.7 904.17,183.27 904.48,170.82C904.491,170.367 904.867,170 905.32,170L920.19,170C920.872,170 921.439,170.553 921.46,171.24Z" style="fill:white;fill-rule:nonzero;"/>
            </g>
        </g>
        <g transform="matrix(1,0,0,1,-978.7,-160.334)">
            <g transform="matrix(0.286145,0,0,0.260716,776.386,222.651)">
                <path id="path36814" d="M1264.89,356.37C1257.79,358.37 1250.8,359.49 1245.84,353.16C1243.04,349.58 1245.17,344.25 1246.28,340.18C1246.32,340.03 1246.34,339.875 1246.34,339.72C1246.34,338.765 1245.56,337.98 1244.6,337.98L1244.59,337.98C1241.56,337.987 1238.66,338.523 1235.87,339.59C1235.39,339.77 1235.19,339.607 1235.27,339.1C1236.1,333.593 1238.93,329.547 1243.76,326.96C1244.05,326.8 1244.18,326.557 1244.13,326.23C1242.62,315.77 1246.67,308.693 1256.28,305C1256.62,304.873 1256.89,304.653 1257.08,304.34C1262.17,296.11 1270.65,292.97 1279.48,296.77C1279.65,296.846 1279.76,297.014 1279.76,297.199C1279.76,297.395 1279.63,297.572 1279.45,297.64C1276.92,298.567 1274.75,300.007 1272.94,301.96C1272.71,302.207 1272.61,302.497 1272.64,302.83C1272.77,304.55 1273.46,305.27 1274.73,304.99C1281.74,303.43 1288.93,301.06 1295.15,306.18C1295.48,306.453 1295.45,306.673 1295.06,306.84L1289,309.47C1288.44,309.71 1288.08,310.26 1288.08,310.866C1288.08,311.429 1288.39,311.947 1288.89,312.21C1312.04,324.52 1314.79,365.86 1315.49,388.81C1315.5,389.224 1315.72,389.605 1316.06,389.83C1365.66,421.94 1407.24,377.53 1429.31,337.31C1432.27,331.92 1436.45,321.6 1441.22,318.06C1452.89,309.4 1457.78,324.31 1459.14,332.68C1459.19,333.02 1459.37,333.27 1459.67,333.43C1469.41,338.81 1471.06,347.71 1469.96,358.21C1469.92,358.563 1470.04,358.843 1470.33,359.05C1478.01,364.74 1478.37,376.11 1476.95,384.77C1476.9,385.103 1476.98,385.397 1477.21,385.65C1482.76,391.84 1480.38,399.13 1476.81,405.65C1476.65,405.95 1476.62,406.267 1476.71,406.6C1479.64,417.03 1479.04,426.37 1470.44,433.68C1462.97,440.033 1455.18,445.977 1447.08,451.51C1446.77,451.723 1446.63,452.02 1446.66,452.4C1447.63,464.553 1445.49,476.097 1440.26,487.03C1439.87,487.843 1439.22,488.25 1438.32,488.25L1408.76,488.25C1408.41,488.25 1408.28,488.08 1408.39,487.74C1414.5,468.01 1425.51,448.7 1441.03,434.91C1441.06,434.884 1441.07,434.848 1441.07,434.81C1441.07,434.733 1441.01,434.67 1440.93,434.67C1440.91,434.67 1440.88,434.677 1440.86,434.69C1418.8,447.42 1406.34,464.51 1397.31,487.85C1396.9,488.917 1396.81,488.89 1397.06,487.77C1402.41,463.14 1414.18,439.93 1432.57,422.63C1433.14,422.097 1433.08,422.023 1432.41,422.41C1413.62,433.263 1400.17,448.787 1392.06,468.98C1391.08,471.42 1390.09,473.853 1389.1,476.28C1388.84,476.927 1388.78,476.91 1388.93,476.23C1394.25,451.49 1406.11,427.28 1424.73,410.01C1424.77,409.968 1424.8,409.913 1424.81,409.854C1424.83,409.702 1424.73,409.559 1424.58,409.538C1424.52,409.529 1424.46,409.54 1424.41,409.57C1395.76,427.04 1379.64,454.42 1376.51,487.77C1376.48,488.09 1376.31,488.25 1375.98,488.25L1366.01,488.25C1365.64,488.25 1365.51,488.073 1365.62,487.72C1368.55,478.58 1372.88,470.01 1376.12,461.18C1377.99,456.087 1380.12,451.107 1382.52,446.24C1382.77,445.72 1382.68,445.653 1382.25,446.04C1369.32,457.453 1360.14,471.38 1354.7,487.82C1354.64,488.007 1354.52,488.057 1354.35,487.97C1354.24,487.91 1354.2,487.833 1354.22,487.74C1359.67,463.63 1371.37,439.67 1389.76,422.82C1389.81,422.78 1389.85,422.717 1389.85,422.65C1389.85,422.534 1389.75,422.439 1389.63,422.439C1389.59,422.439 1389.55,422.453 1389.51,422.48C1368.48,434.873 1354.18,452.723 1346.62,476.03C1345.9,478.237 1345.78,478.203 1346.26,475.93C1351.27,452.05 1363.48,426.52 1381.97,410.09C1382.03,410.048 1382.07,409.983 1382.08,409.911C1382.1,409.764 1382,409.625 1381.84,409.603C1381.77,409.592 1381.7,409.609 1381.64,409.65C1352.85,427.01 1337.1,454.38 1333.75,487.78C1333.72,488.093 1333.54,488.25 1333.23,488.25L1323.25,488.25C1322.88,488.25 1322.74,488.07 1322.85,487.71C1325.46,479.14 1329.65,471.24 1332.59,463.06C1334.7,457.193 1337.12,451.493 1339.86,445.96C1339.88,445.933 1339.88,445.902 1339.88,445.871C1339.88,445.772 1339.8,445.691 1339.7,445.691C1339.66,445.691 1339.61,445.708 1339.58,445.74C1328.95,455.247 1320.86,466.557 1315.31,479.67C1314.22,482.23 1313.08,484.767 1311.87,487.28C1311.66,487.727 1311.6,487.71 1311.71,487.23C1316.96,463.4 1328.82,439.42 1347.05,422.89C1347.12,422.843 1347.16,422.766 1347.16,422.685C1347.16,422.547 1347.04,422.434 1346.9,422.434C1346.85,422.434 1346.8,422.45 1346.76,422.48C1325.57,434.987 1311.23,452.99 1303.75,476.49C1303.46,477.403 1303.39,477.387 1303.52,476.44C1303.67,475.427 1303.98,473.927 1304.46,471.94C1310.04,448.88 1321.67,425.87 1339.53,409.83C1339.84,409.543 1339.81,409.49 1339.42,409.67C1337.76,410.43 1336.16,411.32 1334.62,412.34C1308.28,429.77 1294.11,456.67 1291.04,487.74C1291.01,488.08 1290.82,488.25 1290.49,488.25L1280.54,488.25C1280.13,488.25 1279.99,488.053 1280.12,487.66C1281.9,482.373 1283.89,477.187 1286.08,472.1C1289.56,464 1292.75,454.66 1296.98,446.35C1297,446.316 1297,446.279 1297,446.242C1297,446.1 1296.89,445.982 1296.74,445.982C1296.68,445.982 1296.63,446.003 1296.58,446.04C1283.78,457.48 1274.67,471.363 1269.26,487.69C1269.17,487.97 1269.01,488.007 1268.8,487.8C1268.66,487.68 1268.77,487.28 1268.81,487.11C1274.53,462.83 1285.94,440.2 1303.93,422.99C1303.96,422.959 1303.98,422.92 1303.98,422.879C1304,422.77 1303.92,422.669 1303.82,422.654C1303.78,422.648 1303.74,422.657 1303.7,422.68C1282.69,435.187 1268.43,453.123 1260.93,476.49C1260.64,477.397 1260.59,477.383 1260.78,476.45C1265.45,453.13 1278.1,425.33 1296.79,410C1296.97,409.853 1296.97,409.703 1296.8,409.55C1296.64,409.403 1296.46,409.39 1296.27,409.51C1269.14,426.257 1253.43,450.307 1249.15,481.66C1249.01,482.7 1248.6,482.817 1247.92,482.01C1219.01,447.7 1234.54,402.02 1259.41,370.98C1262.86,366.67 1264.06,361.89 1265.28,356.74C1265.36,356.393 1265.23,356.27 1264.89,356.37ZM1262.31,325.32C1262.31,323.373 1260.71,321.77 1258.76,321.77C1256.81,321.77 1255.21,323.373 1255.21,325.32C1255.21,327.267 1256.81,328.87 1258.76,328.87C1260.71,328.87 1262.31,327.267 1262.31,325.32Z" style="fill:rgb(242,153,82);fill-rule:nonzero;"/>
            </g>
        </g>
        <g transform="matrix(1,0,0,1,-978.7,-160.334)">
            <ellipse id="circle36816" cx="1136.57" cy="307.467" rx="1.016" ry="0.926" style="fill:white;"/>
        </g>
        <g transform="matrix(1,0,0,1,-978.7,-160.334)">
            <g transform="matrix(0.286145,0,0,0.260716,776.386,222.651)">
                <path id="path36818" d="M986.66,430.65C967.06,389.72 933.77,349.03 892.76,328.31C890.973,327.41 891.04,327.237 892.96,327.79C955.65,346.05 998.59,392.14 1017.31,454.19C1017.51,454.857 1017.54,455.537 1017.39,456.23C1015.21,466.737 1013.03,477.247 1010.85,487.76C1010.78,488.087 1010.57,488.25 1010.24,488.25L972.51,488.25C972.197,488.25 971.97,488.107 971.83,487.82C963.037,468.9 951.897,450.907 938.41,433.84C920.71,411.427 899.593,393.473 875.06,379.98C874.733,379.8 874.75,379.76 875.11,379.86C919.443,392.52 953.797,418.357 978.17,457.37C978.743,458.29 978.797,458.26 978.33,457.28C958.55,415.83 925.61,375.88 884.3,354.39C883.107,353.77 883.157,353.647 884.45,354.02C928.243,366.633 962.223,392.173 986.39,430.64C986.443,430.733 986.51,430.763 986.59,430.73C986.603,430.717 986.62,430.707 986.64,430.7C986.667,430.693 986.673,430.677 986.66,430.65Z" style="fill:rgb(106,115,34);fill-rule:nonzero;"/>
            </g>
        </g>
        <g transform="matrix(1,0,0,1,-978.7,-160.334)">
            <g transform="matrix(0.286145,0,0,0.260716,776.386,222.651)">
                <path id="path36820" d="M1087.66,352.97C1086.93,342.7 1102.4,342.53 1101.85,352.93C1101.83,353.31 1101.63,353.5 1101.25,353.5L1088.24,353.5C1087.88,353.5 1087.69,353.323 1087.66,352.97Z" style="fill:rgb(106,115,34);fill-rule:nonzero;"/>
            </g>
        </g>
        <g transform="matrix(1,0,0,1,-978.7,-160.334)">
            <g transform="matrix(1,0,0,1,1004.38,375.85)">
                <g transform="matrix(30,0,0,30,0,0)">
                    <path d="M0.532,-0.869C0.61,-0.866 0.649,-0.86 0.649,-0.852L0.651,-0.84C0.64,-0.81 0.627,-0.795 0.61,-0.795C0.568,-0.79 0.428,-0.778 0.19,-0.76C0.167,-0.757 0.155,-0.745 0.155,-0.725C0.146,-0.693 0.142,-0.629 0.142,-0.531L0.142,-0.477L0.144,-0.396C0.145,-0.389 0.155,-0.385 0.173,-0.385L0.206,-0.385L0.466,-0.396C0.548,-0.396 0.589,-0.38 0.589,-0.348C0.589,-0.327 0.526,-0.313 0.401,-0.303C0.341,-0.294 0.262,-0.287 0.163,-0.283C0.141,-0.278 0.13,-0.267 0.13,-0.25L0.13,-0.242L0.142,-0.08C0.142,-0.027 0.127,-0 0.099,-0L0.085,-0C0.052,-0 0.036,-0.032 0.036,-0.096L0.017,-0.395L0.015,-0.496L0.015,-0.852L0.022,-0.859L0.532,-0.869Z" style="fill:rgb(236,105,1);fill-rule:nonzero;"/>
                </g>
                <g transform="matrix(30,0,0,30,19.9805,0)">
                    <path d="M0.446,-0.889L0.478,-0.889C0.515,-0.889 0.55,-0.883 0.583,-0.871C0.591,-0.871 0.6,-0.841 0.608,-0.781C0.627,-0.721 0.65,-0.66 0.679,-0.6C0.813,-0.358 0.895,-0.209 0.925,-0.15C0.952,-0.092 0.966,-0.051 0.966,-0.027C0.962,-0.014 0.934,-0.005 0.882,-0L0.872,-0C0.862,-0 0.851,-0.017 0.839,-0.051C0.802,-0.125 0.775,-0.175 0.757,-0.199L0.743,-0.203L0.636,-0.201L0.616,-0.201C0.537,-0.189 0.419,-0.178 0.261,-0.168C0.22,-0.162 0.191,-0.151 0.173,-0.137L0.089,-0.035L0.065,-0.025L0.048,-0.025C0.026,-0.029 0.015,-0.038 0.015,-0.055C0.015,-0.076 0.054,-0.148 0.132,-0.271C0.293,-0.59 0.393,-0.791 0.431,-0.877C0.431,-0.883 0.436,-0.887 0.446,-0.889ZM0.233,-0.262C0.254,-0.251 0.271,-0.246 0.286,-0.246C0.323,-0.246 0.445,-0.258 0.651,-0.283L0.7,-0.285C0.7,-0.335 0.634,-0.478 0.503,-0.715L0.499,-0.715C0.488,-0.7 0.436,-0.612 0.343,-0.451C0.27,-0.33 0.233,-0.267 0.233,-0.262Z" style="fill:rgb(236,105,1);fill-rule:nonzero;"/>
                </g>
                <g transform="matrix(30,0,0,30,49.3945,0)">
                    <path d="M0.187,-0.891L0.231,-0.891C0.38,-0.891 0.515,-0.855 0.638,-0.783C0.701,-0.736 0.742,-0.682 0.761,-0.623L0.763,-0.6C0.763,-0.484 0.673,-0.38 0.493,-0.287C0.467,-0.279 0.454,-0.269 0.454,-0.258C0.454,-0.248 0.474,-0.235 0.515,-0.219L0.728,-0.119C0.776,-0.092 0.8,-0.069 0.802,-0.051L0.802,-0.047L0.798,-0.043L0.786,-0.043C0.75,-0.043 0.655,-0.074 0.501,-0.135C0.372,-0.176 0.282,-0.197 0.229,-0.197C0.18,-0.197 0.147,-0.176 0.132,-0.133C0.125,-0.111 0.122,-0.081 0.122,-0.041L0.122,-0.012C0.122,-0.006 0.104,-0.002 0.067,-0L0.065,-0C0.037,-0.004 0.022,-0.014 0.022,-0.031L0.015,-0.434L0.022,-0.752L0.017,-0.871C0.03,-0.877 0.066,-0.883 0.126,-0.889L0.187,-0.891ZM0.122,-0.314C0.123,-0.273 0.127,-0.252 0.134,-0.252L0.149,-0.252C0.2,-0.252 0.329,-0.307 0.536,-0.416C0.623,-0.474 0.667,-0.538 0.667,-0.607C0.667,-0.708 0.569,-0.775 0.374,-0.809L0.284,-0.816C0.246,-0.816 0.213,-0.809 0.185,-0.795C0.155,-0.777 0.14,-0.729 0.14,-0.648L0.122,-0.314Z" style="fill:rgb(236,105,1);fill-rule:nonzero;"/>
                </g>
                <g transform="matrix(30,0,0,30,73.8867,0)">
                    <path d="M0.896,-0.843L0.911,-0.843C0.947,-0.843 0.977,-0.804 0.999,-0.728C1.02,-0.619 1.037,-0.515 1.052,-0.415C1.097,-0.24 1.12,-0.125 1.12,-0.069C1.119,-0.06 1.112,-0.056 1.099,-0.056L1.077,-0.056C1.052,-0.056 1.034,-0.068 1.022,-0.093L0.929,-0.466C0.906,-0.604 0.887,-0.673 0.872,-0.673C0.826,-0.613 0.751,-0.457 0.647,-0.204L0.599,-0.058C0.592,-0.051 0.586,-0.048 0.581,-0.048L0.565,-0.048C0.507,-0.048 0.465,-0.089 0.44,-0.171C0.407,-0.25 0.369,-0.359 0.327,-0.499C0.307,-0.578 0.294,-0.618 0.286,-0.618L0.284,-0.618C0.252,-0.561 0.204,-0.427 0.142,-0.216C0.122,-0.155 0.105,-0.08 0.091,0.009C0.083,0.026 0.075,0.034 0.065,0.034L0.06,0.034C0.035,0.034 0.021,0.017 0.017,-0.017L0.015,-0.028C0.015,-0.063 0.044,-0.176 0.103,-0.368C0.148,-0.554 0.182,-0.676 0.204,-0.735C0.213,-0.748 0.226,-0.755 0.243,-0.755L0.247,-0.755C0.317,-0.755 0.368,-0.742 0.397,-0.716C0.415,-0.67 0.434,-0.574 0.454,-0.429C0.478,-0.313 0.502,-0.235 0.526,-0.192L0.536,-0.183L0.538,-0.183C0.562,-0.197 0.59,-0.246 0.622,-0.331C0.685,-0.517 0.753,-0.67 0.827,-0.79C0.845,-0.821 0.859,-0.837 0.87,-0.837C0.873,-0.84 0.881,-0.842 0.896,-0.843Z" style="fill:rgb(236,105,1);fill-rule:nonzero;"/>
                </g>
                <g transform="matrix(30,0,0,30,122.593,0)">
                    <path d="M0.532,-0.869C0.61,-0.866 0.649,-0.86 0.649,-0.852L0.651,-0.84C0.64,-0.81 0.627,-0.795 0.61,-0.795C0.568,-0.79 0.428,-0.778 0.19,-0.76C0.167,-0.757 0.155,-0.745 0.155,-0.725C0.146,-0.693 0.142,-0.629 0.142,-0.531L0.142,-0.477L0.144,-0.396C0.145,-0.389 0.155,-0.385 0.173,-0.385L0.206,-0.385L0.466,-0.396C0.548,-0.396 0.589,-0.38 0.589,-0.348C0.589,-0.327 0.526,-0.313 0.401,-0.303C0.341,-0.294 0.262,-0.287 0.163,-0.283C0.141,-0.278 0.13,-0.267 0.13,-0.25L0.13,-0.242L0.142,-0.08C0.142,-0.027 0.127,-0 0.099,-0L0.085,-0C0.052,-0 0.036,-0.032 0.036,-0.096L0.017,-0.395L0.015,-0.496L0.015,-0.852L0.022,-0.859L0.532,-0.869Z" style="fill:rgb(236,105,1);fill-rule:nonzero;"/>
                </g>
                <g transform="matrix(30,0,0,30,142.573,0)">
                    <path d="M0.616,-0.9L0.628,-0.9C0.668,-0.9 0.688,-0.89 0.688,-0.869L0.688,-0.867C0.673,-0.839 0.629,-0.824 0.558,-0.824C0.289,-0.8 0.155,-0.784 0.155,-0.777C0.147,-0.774 0.144,-0.77 0.144,-0.764L0.138,-0.398L0.224,-0.398L0.626,-0.408C0.642,-0.408 0.652,-0.398 0.655,-0.377L0.655,-0.371C0.655,-0.357 0.642,-0.347 0.614,-0.342L0.198,-0.303C0.163,-0.3 0.146,-0.29 0.146,-0.273C0.14,-0.252 0.138,-0.234 0.138,-0.221L0.138,-0.203C0.144,-0.151 0.149,-0.124 0.151,-0.121C0.436,-0.118 0.599,-0.113 0.64,-0.105C0.68,-0.102 0.7,-0.097 0.7,-0.09C0.7,-0.064 0.683,-0.046 0.649,-0.035C0.64,-0.031 0.627,-0.029 0.61,-0.029L0.478,-0.029C0.323,-0.01 0.22,-0 0.171,-0L0.144,-0C0.085,-0 0.049,-0.022 0.036,-0.066C0.024,-0.111 0.019,-0.197 0.019,-0.324L0.022,-0.396C0.022,-0.567 0.02,-0.727 0.015,-0.877L0.019,-0.881C0.371,-0.884 0.548,-0.889 0.548,-0.896L0.616,-0.9Z" style="fill:rgb(236,105,1);fill-rule:nonzero;"/>
                </g>
                <g transform="matrix(30,0,0,30,164.019,0)">
                    <path d="M0.616,-0.9L0.628,-0.9C0.668,-0.9 0.688,-0.89 0.688,-0.869L0.688,-0.867C0.673,-0.839 0.629,-0.824 0.558,-0.824C0.289,-0.8 0.155,-0.784 0.155,-0.777C0.147,-0.774 0.144,-0.77 0.144,-0.764L0.138,-0.398L0.224,-0.398L0.626,-0.408C0.642,-0.408 0.652,-0.398 0.655,-0.377L0.655,-0.371C0.655,-0.357 0.642,-0.347 0.614,-0.342L0.198,-0.303C0.163,-0.3 0.146,-0.29 0.146,-0.273C0.14,-0.252 0.138,-0.234 0.138,-0.221L0.138,-0.203C0.144,-0.151 0.149,-0.124 0.151,-0.121C0.436,-0.118 0.599,-0.113 0.64,-0.105C0.68,-0.102 0.7,-0.097 0.7,-0.09C0.7,-0.064 0.683,-0.046 0.649,-0.035C0.64,-0.031 0.627,-0.029 0.61,-0.029L0.478,-0.029C0.323,-0.01 0.22,-0 0.171,-0L0.144,-0C0.085,-0 0.049,-0.022 0.036,-0.066C0.024,-0.111 0.019,-0.197 0.019,-0.324L0.022,-0.396C0.022,-0.567 0.02,-0.727 0.015,-0.877L0.019,-0.881C0.371,-0.884 0.548,-0.889 0.548,-0.896L0.616,-0.9Z" style="fill:rgb(236,105,1);fill-rule:nonzero;"/>
                </g>
                <g transform="matrix(30,0,0,30,185.464,0)">
                    <path d="M0.147,-0.92L0.19,-0.92C0.35,-0.92 0.514,-0.883 0.685,-0.811C0.824,-0.738 0.894,-0.65 0.894,-0.547C0.894,-0.43 0.789,-0.298 0.579,-0.15C0.354,-0.05 0.198,-0 0.112,-0L0.089,-0C0.059,-0 0.039,-0.009 0.028,-0.027C0.023,-0.471 0.019,-0.75 0.015,-0.865C0.015,-0.898 0.033,-0.914 0.069,-0.914C0.09,-0.918 0.116,-0.92 0.147,-0.92ZM0.14,-0.65L0.149,-0.342L0.149,-0.143C0.149,-0.117 0.159,-0.099 0.179,-0.09L0.19,-0.088L0.206,-0.088C0.29,-0.097 0.421,-0.158 0.599,-0.271C0.721,-0.359 0.782,-0.463 0.782,-0.584C0.782,-0.69 0.715,-0.763 0.579,-0.803C0.524,-0.818 0.448,-0.826 0.353,-0.826C0.25,-0.826 0.186,-0.805 0.161,-0.762C0.147,-0.737 0.14,-0.7 0.14,-0.65Z" style="fill:rgb(236,105,1);fill-rule:nonzero;"/>
                </g>
                <g transform="matrix(30,0,0,30,212.71,0)">
                    <path d="M0.339,-0.859C0.437,-0.855 0.535,-0.829 0.636,-0.781C0.67,-0.758 0.687,-0.739 0.687,-0.725C0.715,-0.642 0.729,-0.574 0.729,-0.521C0.729,-0.481 0.714,-0.461 0.683,-0.461C0.645,-0.461 0.622,-0.513 0.614,-0.617C0.604,-0.661 0.593,-0.693 0.581,-0.713C0.542,-0.774 0.492,-0.805 0.431,-0.805C0.387,-0.805 0.333,-0.773 0.269,-0.711C0.205,-0.654 0.164,-0.6 0.146,-0.547C0.136,-0.521 0.132,-0.499 0.132,-0.48L0.132,-0.465C0.132,-0.423 0.151,-0.396 0.188,-0.383C0.256,-0.362 0.384,-0.337 0.575,-0.307C0.748,-0.27 0.835,-0.22 0.835,-0.158C0.835,-0.124 0.808,-0.096 0.755,-0.074C0.661,-0.025 0.552,-0 0.427,-0C0.232,-0.011 0.113,-0.026 0.071,-0.043C0.034,-0.061 0.015,-0.081 0.015,-0.104L0.015,-0.107L0.021,-0.113C0.171,-0.078 0.301,-0.061 0.411,-0.061C0.521,-0.061 0.603,-0.081 0.657,-0.123C0.673,-0.14 0.681,-0.156 0.681,-0.172C0.681,-0.203 0.631,-0.223 0.53,-0.23C0.271,-0.272 0.142,-0.299 0.142,-0.311C0.102,-0.325 0.068,-0.362 0.04,-0.422C0.035,-0.441 0.032,-0.46 0.03,-0.479C0.03,-0.568 0.069,-0.657 0.146,-0.746C0.202,-0.801 0.246,-0.833 0.278,-0.842C0.289,-0.847 0.309,-0.853 0.339,-0.859Z" style="fill:rgb(236,105,1);fill-rule:nonzero;"/>
                </g>
            </g>
        </g>
    </g>
</svg>
